<?xml version="1.0" standalone="no"?>
<!DOCTYPE svg PUBLIC "-//W3C//DTD SVG 20010904//EN"
 "http://www.w3.org/TR/2001/REC-SVG-20010904/DTD/svg10.dtd">
<svg version="1.0" xmlns="http://www.w3.org/2000/svg"
 width="267.000000pt" height="189.000000pt" viewBox="0 0 267.000000 189.000000"
 preserveAspectRatio="xMidYMid meet">

<g transform="translate(0.000000,189.000000) scale(0.100000,-0.100000)"
fill="#000000" stroke="none">
<path d="M839 1616 c-52 -15 -142 -71 -181 -112 -30 -33 -98 -143 -98 -158 0
-6 12 7 25 29 27 43 34 41 11 -3 -7 -15 -17 -43 -21 -62 -7 -33 -6 -34 9 -15
20 26 20 17 0 -30 -28 -68 -9 -45 34 40 24 47 46 85 50 85 4 0 25 -37 46 -83
22 -45 58 -120 80 -167 l41 -84 3 162 2 162 79 0 c43 0 93 -5 111 -11 57 -20
74 -111 27 -144 l-21 -15 22 -16 c13 -9 27 -26 32 -38 6 -13 9 22 9 102 l1
122 78 0 c82 -1 140 -16 174 -47 21 -18 21 -18 15 8 -22 91 -123 204 -225 252
-59 28 -78 32 -162 34 -55 1 -114 -3 -141 -11z"/>
<path d="M551 1294 c0 -11 3 -14 6 -6 3 7 2 16 -1 19 -3 4 -6 -2 -5 -13z"/>
<path d="M930 1276 c0 -31 3 -36 23 -36 33 0 49 15 45 41 -2 19 -10 25 -35 27
-32 3 -33 2 -33 -32z"/>
<path d="M1190 1200 l0 -100 36 0 c71 0 118 86 83 152 -11 21 -66 48 -99 48
-19 0 -20 -6 -20 -100z"/>
<path d="M623 1106 l-42 -84 19 -39 c24 -51 86 -114 144 -148 71 -42 148 -58
248 -52 108 6 188 40 268 116 46 43 63 53 104 59 27 4 51 13 54 20 3 9 -34 12
-160 12 -169 0 -286 -13 -447 -49 l-94 -21 -38 31 c-22 17 -39 35 -39 39 0 5
20 12 43 15 73 11 73 13 28 104 -23 44 -42 81 -44 81 -1 0 -21 -38 -44 -84z"/>
<path d="M930 1125 c0 -47 4 -50 48 -39 26 8 39 48 22 69 -7 8 -25 15 -41 15
-28 0 -29 -2 -29 -45z"/>
<path d="M1077 1065 c-17 -24 -17 -25 3 -25 15 0 20 6 20 25 0 30 -1 30 -23 0z"/>
<path d="M1325 1044 l-40 -24 31 0 c23 0 34 6 42 25 6 14 11 25 9 24 -1 0 -20
-12 -42 -25z"/>
<path d="M730 595 c0 -78 3 -95 15 -95 12 0 15 17 15 95 0 78 -3 95 -15 95
-12 0 -15 -17 -15 -95z"/>
<path d="M790 595 c0 -78 3 -95 15 -95 12 0 15 17 15 95 0 78 -3 95 -15 95
-12 0 -15 -17 -15 -95z"/>
<path d="M840 676 c0 -10 9 -16 21 -16 24 0 21 23 -4 28 -10 2 -17 -3 -17 -12z"/>
<path d="M1110 658 c0 -31 -2 -33 -37 -33 -35 0 -39 -3 -47 -37 -6 -26 -6 -46
2 -63 10 -22 17 -25 62 -23 l50 2 0 93 c0 76 -3 93 -15 93 -10 0 -15 -10 -15
-32z m-16 -54 c23 -9 21 -70 -1 -78 -11 -5 -22 -1 -30 10 -16 22 -16 30 -3 55
12 21 12 21 34 13z"/>
<path d="M1360 595 c0 -75 3 -95 14 -95 21 0 26 23 26 111 0 72 -2 79 -20 79
-19 0 -20 -7 -20 -95z"/>
<path d="M1770 657 c0 -32 -2 -33 -31 -29 -36 5 -58 -18 -59 -61 0 -53 15 -67
70 -65 l50 2 0 93 c0 76 -3 93 -15 93 -10 0 -15 -10 -15 -33z m-2 -86 c5 -50
-30 -69 -49 -27 -8 17 -8 29 1 45 17 33 44 23 48 -18z"/>
<path d="M615 663 c-9 -24 -55 -156 -55 -160 0 -2 7 -3 16 -3 9 0 18 9 21 20
4 16 14 20 43 20 29 0 39 -4 43 -20 6 -22 37 -28 36 -7 0 6 -13 46 -28 87 -20
58 -32 76 -48 78 -12 2 -23 -4 -28 -15z m43 -62 c9 -26 8 -29 -14 -34 -31 -6
-34 -2 -21 38 12 39 21 38 35 -4z"/>
<path d="M1220 590 l0 -90 43 0 c72 0 108 41 71 81 -13 14 -13 20 -2 39 11 19
10 24 -11 41 -14 11 -38 19 -62 19 l-39 0 0 -90z m68 61 c21 -13 10 -46 -16
-49 -17 -3 -22 1 -22 21 0 35 13 45 38 28z m20 -98 c2 -14 -3 -23 -17 -28 -28
-9 -41 1 -41 31 0 22 4 25 28 22 19 -2 28 -9 30 -25z"/>
<path d="M840 565 c0 -51 3 -65 15 -65 17 0 16 -3 19 73 2 49 0 57 -16 57 -16
0 -18 -9 -18 -65z"/>
<path d="M906 608 c-21 -30 -20 -71 2 -91 23 -21 92 -23 92 -4 0 9 -9 12 -29
9 -22 -3 -32 1 -40 17 -11 20 -9 21 34 21 40 0 45 2 45 23 0 32 -18 47 -56 47
-23 0 -38 -7 -48 -22z m72 -15 c2 -9 -7 -13 -27 -13 -23 0 -29 4 -24 16 6 17
44 15 51 -3z"/>
<path d="M1426 608 c-36 -51 -7 -108 53 -108 23 0 41 5 44 13 4 10 -3 12 -24
9 -28 -4 -59 11 -59 29 0 5 20 9 45 9 40 0 45 2 45 23 0 32 -18 47 -56 47 -23
0 -38 -7 -48 -22z m72 -15 c2 -9 -7 -13 -27 -13 -23 0 -29 4 -24 16 6 17 44
15 51 -3z"/>
<path d="M1550 563 c0 -49 3 -63 15 -63 11 0 15 12 15 44 0 44 19 74 40 61 5
-3 10 -28 10 -56 0 -37 4 -49 15 -49 23 0 28 24 18 78 l-8 47 -53 1 -52 1 0
-64z"/>
<path d="M1836 608 c-21 -30 -20 -71 2 -91 23 -21 92 -23 92 -3 0 9 -8 12 -25
8 -25 -4 -55 12 -55 29 0 5 20 9 45 9 40 0 45 2 45 23 0 32 -18 47 -56 47 -23
0 -38 -7 -48 -22z m72 -15 c2 -9 -7 -13 -27 -13 -23 0 -29 4 -24 16 6 17 44
15 51 -3z"/>
<path d="M1960 563 c0 -49 3 -63 15 -63 11 0 15 12 15 46 0 37 4 47 20 51 34
9 23 31 -15 30 l-35 -1 0 -63z"/>
<path d="M2057 623 c-18 -17 -6 -53 23 -68 35 -18 30 -39 -6 -32 -16 3 -24 0
-24 -9 0 -9 12 -14 35 -14 45 0 66 32 39 61 -9 10 -23 19 -31 19 -7 0 -13 7
-13 15 0 9 9 15 25 15 14 0 25 5 25 10 0 11 -63 14 -73 3z"/>
<path d="M614 440 c-27 -11 -37 -36 -23 -62 8 -15 7 -24 -5 -37 -20 -22 -21
-55 -3 -70 8 -6 44 -10 85 -9 68 2 85 9 62 23 -5 3 -7 19 -4 34 7 34 -14 54
-23 22 -6 -25 -16 -27 -33 -6 -11 13 -9 20 9 38 28 31 27 55 -5 67 -29 12 -32
12 -60 0z m46 -39 c0 -19 -23 -35 -34 -24 -14 15 -5 43 14 43 13 0 20 -7 20
-19z m-11 -88 c22 -18 19 -33 -7 -33 -27 0 -45 17 -39 34 8 20 22 20 46 -1z"/>
<path d="M980 431 c0 -12 6 -21 16 -21 9 0 14 7 12 17 -5 25 -28 28 -28 4z"/>
<path d="M1233 435 c-7 -20 2 -29 21 -22 9 4 13 13 10 22 -8 19 -23 19 -31 0z"/>
<path d="M1300 355 c0 -78 3 -95 15 -95 12 0 15 17 15 95 0 78 -3 95 -15 95
-12 0 -15 -17 -15 -95z"/>
<path d="M1352 358 c3 -79 6 -93 21 -96 15 -3 17 6 17 92 0 90 -1 96 -20 96
-20 0 -21 -5 -18 -92z"/>
<path d="M818 434 c-5 -4 -8 -45 -8 -91 l0 -83 50 0 c66 0 100 30 100 88 0 56
-24 81 -85 88 -27 3 -53 3 -57 -2z m98 -49 c22 -33 10 -83 -23 -96 -40 -15
-43 -12 -43 56 0 63 1 65 25 65 15 0 31 -9 41 -25z"/>
<path d="M1150 406 c0 -8 -6 -16 -12 -19 -10 -3 -10 -7 -1 -18 6 -8 13 -35 15
-59 3 -41 6 -45 31 -48 15 -2 27 1 27 7 0 6 -7 11 -15 11 -11 0 -15 12 -15 45
0 33 4 45 15 45 8 0 15 5 15 10 0 6 -7 10 -15 10 -8 0 -15 7 -15 15 0 8 -7 15
-15 15 -8 0 -15 -6 -15 -14z"/>
<path d="M980 325 c0 -51 3 -65 15 -65 12 0 15 14 15 65 0 51 -3 65 -15 65
-12 0 -15 -14 -15 -65z"/>
<path d="M1037 383 c-18 -17 -6 -53 23 -68 17 -9 30 -20 30 -26 0 -7 -12 -9
-30 -7 -20 3 -30 0 -30 -9 0 -18 64 -17 80 2 16 20 6 43 -25 57 -32 15 -33 38
0 38 14 0 25 5 25 10 0 11 -63 14 -73 3z"/>
<path d="M1230 325 c0 -51 3 -65 15 -65 12 0 15 14 15 65 0 51 -3 65 -15 65
-12 0 -15 -14 -15 -65z"/>
<path d="M1416 368 c-36 -51 -7 -108 54 -108 51 0 61 18 13 22 -27 2 -39 8
-41 21 -3 14 4 17 37 17 36 0 41 3 41 23 0 32 -18 47 -56 47 -23 0 -38 -7 -48
-22z m69 -18 c0 -9 -7 -14 -20 -12 -26 5 -29 8 -20 22 10 16 40 8 40 -10z"/>
<path d="M1540 323 c0 -48 3 -63 14 -63 11 0 16 14 18 48 3 40 6 47 26 50 41
6 26 31 -18 29 l-40 -1 0 -63z"/>
<path d="M1642 378 c-21 -21 -13 -47 18 -63 17 -9 30 -20 30 -26 0 -7 -12 -9
-30 -7 -20 3 -30 0 -30 -9 0 -18 64 -17 80 2 16 20 6 43 -25 57 -32 15 -33 38
0 38 14 0 25 5 25 10 0 14 -54 12 -68 -2z"/>
</g>
</svg>
