<?xml version="1.0" standalone="no"?>
<!DOCTYPE svg PUBLIC "-//W3C//DTD SVG 20010904//EN"
 "http://www.w3.org/TR/2001/REC-SVG-20010904/DTD/svg10.dtd">
<svg version="1.0" xmlns="http://www.w3.org/2000/svg"
 width="1080.000000pt" height="453.000000pt" viewBox="0 0 1080.000000 453.000000"
 preserveAspectRatio="xMidYMid meet">

<g transform="translate(0.000000,453.000000) scale(0.100000,-0.100000)"
fill="#000000" stroke="none">
<path d="M5715 2839 c-499 -38 -917 -410 -1009 -899 -21 -107 -21 -318 -1
-416 95 -456 428 -788 890 -886 34 -7 124 -12 205 -12 123 1 160 5 243 27 115
31 283 108 371 171 130 93 253 240 311 371 66 148 105 376 90 529 l-7 76 -484
0 -484 0 0 -170 0 -170 299 0 298 0 -8 -42 c-28 -150 -163 -305 -337 -388
-219 -105 -471 -89 -675 42 -179 116 -289 258 -348 448 -30 97 -33 307 -5 410
73 269 311 503 566 556 96 20 244 20 339 0 150 -32 310 -133 417 -264 27 -33
53 -61 57 -61 14 -1 257 211 257 224 0 22 -91 124 -170 192 -227 195 -508 285
-815 262z"/>
<path d="M9273 2825 c-249 -45 -485 -188 -660 -400 -163 -198 -243 -424 -243
-690 0 -304 110 -575 320 -785 267 -266 655 -381 1030 -304 108 23 182 49 292
107 295 152 501 427 568 757 29 138 24 371 -9 494 -45 167 -113 297 -232 440
-172 206 -395 337 -648 381 -102 18 -319 18 -418 0z m337 -330 c217 -24 479
-222 571 -431 81 -186 90 -408 25 -596 -63 -179 -228 -360 -400 -438 -279
-127 -607 -75 -829 129 -322 299 -343 787 -47 1105 91 98 215 176 331 210 104
31 202 36 349 21z"/>
<path d="M3651 2803 c-5 -10 -156 -355 -336 -768 -180 -412 -387 -888 -461
-1057 -74 -168 -134 -311 -134 -317 0 -8 56 -11 187 -9 l188 3 18 35 c22 44
57 125 138 315 34 83 64 151 65 153 1 2 33 -6 71 -18 228 -71 446 -76 655 -15
47 13 91 26 97 27 6 2 22 -22 35 -52 12 -30 58 -138 100 -240 43 -102 83 -191
88 -197 8 -10 59 -13 194 -13 156 0 184 2 184 15 0 13 -36 99 -220 530 -21 50
-95 225 -165 390 -70 165 -185 435 -255 600 -71 165 -158 372 -196 460 -37 88
-72 163 -78 167 -6 4 -46 8 -88 8 -64 0 -79 -3 -87 -17z m160 -814 c40 -96 84
-205 99 -244 15 -38 46 -117 70 -174 31 -77 39 -105 30 -111 -28 -17 -172 -35
-280 -34 -111 0 -280 27 -280 44 0 4 41 106 91 226 49 121 113 276 142 346 28
70 53 126 54 124 2 -1 35 -81 74 -177z"/>
<path d="M212 1734 l3 -1079 195 -3 c227 -4 516 12 633 34 108 21 256 69 337
109 182 92 356 273 449 468 145 303 128 729 -39 1020 -156 270 -407 434 -766
498 -102 19 -170 22 -467 26 l-347 5 2 -1078z m664 725 c221 -24 372 -87 489
-203 144 -142 205 -299 205 -525 0 -174 -49 -326 -145 -450 -140 -183 -315
-260 -645 -283 -91 -6 -174 -9 -183 -5 -16 6 -17 58 -17 742 l0 735 100 0 c56
0 144 -5 196 -11z"/>
<path d="M2220 1730 l0 -1080 175 0 175 0 0 1080 0 1080 -175 0 -175 0 0
-1080z"/>
<path d="M7050 1730 l0 -1080 585 0 585 0 0 170 0 170 -410 0 -410 0 0 335 0
335 375 0 375 0 0 170 0 170 -375 0 -375 0 0 235 0 235 410 0 410 0 0 170 0
170 -585 0 -585 0 0 -1080z"/>
</g>
</svg>
